<?xml version="1.0" standalone="no"?>
<!DOCTYPE svg PUBLIC "-//W3C//DTD SVG 20010904//EN"
 "http://www.w3.org/TR/2001/REC-SVG-20010904/DTD/svg10.dtd">
<svg version="1.0" xmlns="http://www.w3.org/2000/svg"
 width="726.000000pt" height="726.000000pt" viewBox="0 0 726.000000 726.000000"
 preserveAspectRatio="xMidYMid meet">
<metadata>
Created by potrace 1.11, written by Peter Selinger 2001-2013
</metadata>
<g transform="translate(0.000000,726.000000) scale(0.100000,-0.100000)"
fill="#000000" stroke="none">
<path d="M3426 7023 c-2 -2 -32 -6 -66 -8 -59 -4 -89 -8 -185 -21 -101 -14
-167 -26 -230 -41 -16 -4 -32 -7 -35 -8 -3 -1 -18 -4 -35 -8 -16 -4 -39 -9
-50 -11 -11 -2 -32 -9 -47 -15 -16 -6 -28 -8 -28 -5 0 2 -8 0 -18 -5 -11 -6
-30 -12 -43 -14 -38 -7 -317 -112 -394 -148 -38 -18 -72 -33 -75 -33 -7 -2
-134 -68 -190 -100 -25 -14 -58 -33 -75 -42 -39 -22 -257 -165 -271 -178 -7
-6 -24 -20 -40 -31 -31 -22 -133 -104 -150 -120 -6 -5 -38 -34 -71 -63 -49
-42 -194 -185 -249 -245 -10 -12 -166 -200 -187 -227 -26 -33 -145 -208 -173
-253 -16 -27 -37 -61 -46 -75 -35 -54 -228 -452 -228 -470 0 -5 -11 -36 -25
-69 -25 -63 -96 -293 -101 -328 -1 -11 -3 -22 -5 -25 -1 -3 -3 -9 -4 -15 -2
-5 -4 -12 -5 -15 -1 -3 -4 -16 -7 -30 -7 -38 -11 -55 -13 -55 -1 0 -3 -11 -5
-25 -2 -14 -8 -52 -14 -85 -18 -103 -23 -142 -38 -280 -8 -77 -8 -490 0 -575
14 -146 28 -242 47 -335 6 -27 13 -68 16 -90 3 -21 8 -43 10 -47 3 -5 8 -20
10 -35 8 -41 60 -222 84 -288 12 -33 23 -64 24 -70 2 -5 9 -23 16 -40 7 -16
14 -32 15 -35 11 -42 63 -158 133 -297 26 -51 51 -102 57 -113 5 -11 13 -20
17 -20 5 0 8 -5 8 -12 0 -13 130 -221 142 -226 4 -2 8 -8 8 -13 0 -6 5 -15 10
-22 13 -15 59 -77 85 -113 11 -16 27 -36 36 -45 9 -9 21 -24 25 -32 15 -26
155 -177 251 -272 105 -103 161 -152 282 -247 47 -38 91 -72 98 -78 7 -5 16
-10 22 -10 5 0 11 -4 13 -9 7 -20 360 -234 385 -234 7 0 13 -4 13 -8 0 -11
360 -169 420 -184 8 -2 51 -15 95 -29 120 -39 138 -45 165 -50 14 -3 40 -9 58
-15 17 -5 32 -8 32 -6 0 3 10 1 23 -4 21 -8 59 -16 122 -26 20 -3 59 -11 102
-19 12 -3 51 -7 88 -10 37 -4 70 -8 74 -10 6 -4 222 -18 249 -17 15 1 25 1
137 1 116 -1 308 11 386 25 13 2 44 6 69 9 25 3 56 8 70 11 14 3 40 7 59 10
18 2 41 7 51 10 10 3 31 8 46 10 16 2 63 13 104 25 41 11 86 23 99 26 13 3 48
13 78 24 29 10 53 16 53 13 0 -3 6 0 13 6 8 6 22 12 33 14 10 2 33 9 49 16 17
6 44 17 60 23 17 6 54 22 83 35 29 12 59 23 66 23 8 0 16 4 18 9 2 5 9 11 17
13 16 3 177 84 261 131 100 55 298 185 334 219 11 10 28 20 38 24 10 3 18 9
18 13 0 5 17 20 38 33 20 14 54 42 75 62 21 20 41 36 43 36 6 0 152 140 223
214 31 32 66 69 79 82 12 13 22 28 22 34 0 5 4 10 9 10 4 0 28 25 52 56 24 31
49 61 54 68 128 146 303 441 445 751 54 117 158 438 176 544 3 14 8 35 11 46
9 26 12 43 18 80 3 17 7 41 10 55 7 35 13 77 20 140 3 30 8 66 10 80 24 145
23 579 -1 745 -2 16 -6 50 -9 75 -3 25 -7 56 -10 70 -10 45 -17 85 -19 100 -1
8 -6 31 -10 50 -4 19 -9 44 -11 55 -2 11 -4 20 -5 20 -1 0 -4 14 -6 30 -3 17
-12 55 -21 85 -9 30 -15 55 -14 55 1 0 -65 196 -94 275 -113 312 -337 688
-584 980 -93 111 -371 379 -444 429 -12 8 -24 17 -27 20 -13 15 -99 81 -105
81 -3 0 -13 6 -20 13 -26 22 -39 32 -112 80 -40 26 -77 47 -82 47 -5 0 -11 4
-13 8 -3 8 -151 95 -190 112 -13 6 -30 14 -38 19 -28 18 -188 90 -257 117 -37
14 -76 30 -85 35 -10 5 -22 9 -27 9 -5 0 -22 5 -38 12 -15 6 -30 12 -33 13 -3
0 -21 6 -40 12 -82 26 -207 62 -230 67 -14 2 -47 10 -75 16 -65 15 -82 19
-125 25 -20 3 -47 8 -60 10 -30 6 -66 11 -140 20 -30 3 -73 8 -95 11 -49 7
-533 13 -539 7z"/>
</g>
</svg>
